<svg width="215.78" height="89.78" xmlns="http://www.w3.org/2000/svg">
 <defs>
  <style>.cls-1{fill:none}.cls-2,.cls-3{fill:#fff;}.cls-3{font-size:24px;font-family:MyriadPro-Regular, Myriad
            Pro;}.cls-4{letter-spacing:-0.03em;}.cls-5{letter-spacing:0em;}.cls-6{letter-spacing:-0.01em;}.cls-7{letter-spacing:-0.01em;}.cls-8{letter-spacing:0em;}.cls-9{letter-spacing:0em;}.cls-10{letter-spacing:0em;}.cls-11{letter-spacing:0.01em;}.cls-12{letter-spacing:-0.01em;}</style>
 </defs>
 <title>FFC</title>
 <g>
  <title>background</title>
  <rect fill="none" id="canvas_background" height="91.78" width="217.78" y="-1" x="-1"/>
 </g>
 <g>
  <title>Layer 1</title>
  <path id="svg_1" d="m168.47,28.67a1.65,1.65 0 0 1 -2.3,0.33l-2.64,-2a1.65,1.65 0 0 1 -0.33,-2.3l4,-5.29a1.65,1.65 0 0 1 2.3,-0.33l2.64,2a1.65,1.65 0 0 1 0.33,2.3l-4,5.29z" class="cls-2"/>
  <path id="svg_2" d="m164.5,17.45a1.65,1.65 0 0 0 -0.33,-2.3l-1.32,-1a1.65,1.65 0 0 0 -2.3,0.33l-12.84,17.16a8.32,8.32 0 0 1 -2.46,2.06a9.2,9.2 0 0 0 -2.81,2.24l-3.95,5.28l-1.48,2l-1.48,2l0,0a1.65,1.65 0 0 0 0.33,2.3l4,3a1.65,1.65 0 0 0 2.3,-0.33l0,0l1.48,-2l1.48,-2l3.95,-5.28a9.13,9.13 0 0 0 1.34,-3.32a8.4,8.4 0 0 1 1.28,-2.94l12.81,-17.2z" class="cls-2"/>
  <rect id="svg_3" transform="rotate(-53.20000076293945 -846.9699707031249,193.02999877929693) " height="11.64" width="6.59" y="892.759999" x="-107.119971" class="cls-2"/>
  <path id="svg_4" d="m160.55,14.49l-3.95,5.28l-0.08,-0.06c-2.64,-2 -4,-3 -8.58,-2.3c0,0 4.61,-8.91 12.53,-3" class="cls-2"/>
  <path id="svg_5" d="m81,60.91a34.64,34.64 0 0 0 -5.71,19.1a4.29,4.29 0 1 0 8.58,0a26.39,26.39 0 0 1 52.79,0a4.29,4.29 0 0 0 8.58,0a34.83,34.83 0 0 0 -6.05,-19.64c-6.23,-9.83 -11.51,-10.8 -14.61,-12.2a21.8,21.8 0 1 0 -28.71,0a34.59,34.59 0 0 0 -8.78,5.71m23.17,-8.84a13.25,13.25 0 1 1 13.25,-13.25a13.26,13.26 0 0 1 -13.27,13.26l0.02,-0.01z" class="cls-2"/>
  <path id="svg_6" d="m47.08,45.71a23.57,23.57 0 0 0 -3.89,13a2.92,2.92 0 1 0 5.84,0a18,18 0 0 1 35.92,0a2.92,2.92 0 0 0 5.84,0a23.7,23.7 0 0 0 -4.12,-13.37c-4.24,-6.69 -7.83,-7.35 -9.94,-8.3a14.84,14.84 0 1 0 -19.54,0a23.54,23.54 0 0 0 -6,3.89m15.76,-6a9,9 0 1 1 9,-9a9,9 0 0 1 -8.95,8.98l-0.05,0.02z" class="cls-2"/>
 </g>
</svg>