<svg id="Layer_1" data-name="Layer 1" xmlns="http://www.w3.org/2000/svg" viewBox="0 0 215.78 128.78">
    <defs>
        <style>.cls-1{fill:none}.cls-2,.cls-3{fill:#fff;}.cls-3{font-size:24px;font-family:MyriadPro-Regular, Myriad
            Pro;}.cls-4{letter-spacing:-0.03em;}.cls-5{letter-spacing:0em;}.cls-6{letter-spacing:-0.01em;}.cls-7{letter-spacing:-0.01em;}.cls-8{letter-spacing:0em;}.cls-9{letter-spacing:0em;}.cls-10{letter-spacing:0em;}.cls-11{letter-spacing:0.01em;}.cls-12{letter-spacing:-0.01em;}
        </style>
    </defs>
    <title>FFC</title>
    <path class="cls-2"
          d="M748.47,713.67a1.65,1.65,0,0,1-2.3.33l-2.64-2a1.65,1.65,0,0,1-.33-2.3l4-5.29a1.65,1.65,0,0,1,2.3-.33l2.64,2a1.65,1.65,0,0,1,.33,2.3Z"
          transform="translate(-580 -685)"/>
    <path class="cls-2"
          d="M744.5,702.45a1.65,1.65,0,0,0-.33-2.3l-1.32-1a1.65,1.65,0,0,0-2.3.33l-12.84,17.16a8.32,8.32,0,0,1-2.46,2.06,9.2,9.2,0,0,0-2.81,2.24l-3.95,5.28-1.48,2-1.48,2h0a1.65,1.65,0,0,0,.33,2.3l4,3a1.65,1.65,0,0,0,2.3-.33h0l1.48-2,1.48-2,3.95-5.28a9.13,9.13,0,0,0,1.34-3.32,8.4,8.4,0,0,1,1.28-2.94Z"
          transform="translate(-580 -685)"/>
    <rect class="cls-2" x="739.85" y="699.73" width="6.59" height="11.64"
          transform="translate(-846.97 193.03) rotate(-53.2)"/>
    <path class="cls-2" d="M740.55,699.49l-3.95,5.28-.08-.06c-2.64-2-4-3-8.58-2.3,0,0,4.61-8.91,12.53-3"
          transform="translate(-580 -685)"/>
    <path class="cls-2"
          d="M661,745.91a34.64,34.64,0,0,0-5.71,19.1,4.29,4.29,0,1,0,8.58,0,26.39,26.39,0,0,1,52.79,0,4.29,4.29,0,0,0,8.58,0,34.83,34.83,0,0,0-6.05-19.64c-6.23-9.83-11.51-10.8-14.61-12.2a21.8,21.8,0,1,0-28.71,0,34.59,34.59,0,0,0-8.78,5.71m23.17-8.84a13.25,13.25,0,1,1,13.25-13.25A13.26,13.26,0,0,1,690.24,730.05Z"
          transform="translate(-580 -685)"/>
    <path class="cls-2"
          d="M627.08,730.71a23.57,23.57,0,0,0-3.89,13,2.92,2.92,0,1,0,5.84,0,18,18,0,0,1,35.92,0,2.92,2.92,0,0,0,5.84,0,23.7,23.7,0,0,0-4.12-13.37c-4.24-6.69-7.83-7.35-9.94-8.3a14.84,14.84,0,1,0-19.54,0,23.54,23.54,0,0,0-6,3.89m15.76-6a9,9,0,1,1,9-9A9,9,0,0,1,647,719.91Z"
          transform="translate(-580 -685)"/>
</svg>